# xmcd
#
# Track frame offsets: 
#        150
#        15024
#        30182
#        37245
#        40544
#        49010
#        64331
#        79990
#        92016
#        94826
#        113289
#        130868
#        134553
#
# Disc length: 2144 seconds
#
# Revision: 0
# Processed by: cddbd v1.5.2PL0 Copyright (c) Steve Scherf et al.
# Submitted via: ExactAudioCopy v0.99pb5
#
DISCID=99085e0d
DTITLE=Kosola - Noutonauha
DYEAR=2010
DGENRE=Rap
TTITLE0=Mit‰s Pienist‰
TTITLE1=Sillon Ku Se Pumppaa (feat. Solonen)
TTITLE2=Sen Biisin Nimi Oli
TTITLE3=UG Metaforii
TTITLE4=UG Metaforii 2
TTITLE5=Sellast Se O
TTITLE6=T‰‰l P‰i (feat. Olavi N‰lk‰) (Splashtapesessio)
TTITLE7=Hit The Road Jack (feat. Kassumato)
TTITLE8=Fraulein Interlude (Splashtapesessio)
TTITLE9=Polta Ensi
TTITLE10=Pekonikamit (feat. David Hege)
TTITLE11=Vaan Skitti
TTITLE12=Mit‰ Kuuluu
EXTD=
EXTT0=
EXTT1=
EXTT2=
EXTT3=
EXTT4=
EXTT5=
EXTT6=
EXTT7=
EXTT8=
EXTT9=
EXTT10=
EXTT11=
EXTT12=
PLAYORDER=
